<?xml version="1.0" encoding="utf-8" ?>
<svg baseProfile="tiny" height="100%" version="1.2" width="100%" xmlns="http://www.w3.org/2000/svg" xmlns:ev="http://www.w3.org/2001/xml-events" xmlns:xlink="http://www.w3.org/1999/xlink"><defs /><path d="M 667,385 L 666,386 L 665,386 L 664,387 L 663,387 L 661,389 L 661,390 L 660,391 L 660,398 L 661,399 L 661,400 L 663,402 L 664,402 L 665,403 L 666,403 L 667,404 L 670,404 L 671,405 L 674,405 L 678,409 L 678,411 L 676,413 L 675,413 L 674,414 L 663,414 L 662,413 L 660,413 L 660,417 L 661,417 L 662,418 L 665,418 L 666,419 L 675,419 L 676,418 L 678,418 L 679,417 L 680,417 L 683,414 L 683,413 L 684,412 L 684,406 L 683,405 L 683,404 L 681,402 L 680,402 L 679,401 L 677,401 L 676,400 L 674,400 L 673,399 L 671,399 L 670,398 L 669,398 L 666,395 L 666,393 L 669,390 L 680,390 L 681,391 L 682,391 L 682,389 L 683,388 L 683,387 L 682,386 L 680,386 L 679,385 Z" fill="black" /><path d="M 626,385 L 626,418 L 646,418 L 647,417 L 648,417 L 649,416 L 650,416 L 653,413 L 653,412 L 654,411 L 654,410 L 653,409 L 653,406 L 652,405 L 652,404 L 651,404 L 650,403 L 649,403 L 647,401 L 648,400 L 649,400 L 651,398 L 651,397 L 652,396 L 652,392 L 651,391 L 651,390 L 648,387 L 647,387 L 646,386 L 644,386 L 643,385 Z" fill="black" /><path d="M 601,385 L 600,386 L 600,388 L 599,389 L 599,390 L 598,391 L 598,393 L 597,394 L 597,395 L 596,396 L 596,398 L 595,399 L 595,400 L 594,401 L 594,402 L 593,403 L 593,405 L 592,406 L 592,407 L 591,408 L 591,410 L 590,411 L 590,412 L 589,413 L 589,415 L 588,416 L 588,417 L 587,418 L 594,418 L 594,417 L 595,416 L 595,414 L 596,413 L 596,412 L 598,410 L 610,410 L 613,413 L 613,415 L 614,416 L 614,418 L 621,418 L 621,416 L 620,415 L 620,414 L 619,413 L 619,412 L 618,411 L 618,410 L 617,409 L 617,408 L 616,407 L 616,405 L 615,404 L 615,403 L 614,402 L 614,400 L 613,399 L 613,398 L 612,397 L 612,395 L 611,394 L 611,393 L 610,392 L 610,390 L 609,389 L 609,388 L 608,387 L 608,386 L 607,385 Z" fill="black" /><path d="M 562,385 L 562,418 L 584,418 L 584,414 L 569,414 L 568,413 L 568,385 Z" fill="black" /><path d="M 520,385 L 520,386 L 519,387 L 519,389 L 518,390 L 518,391 L 517,392 L 517,393 L 516,394 L 516,396 L 515,397 L 515,398 L 514,399 L 514,400 L 513,401 L 513,403 L 512,404 L 512,405 L 511,406 L 511,408 L 510,409 L 510,410 L 509,411 L 509,413 L 508,414 L 508,415 L 507,416 L 507,417 L 506,418 L 513,418 L 513,416 L 515,414 L 515,412 L 517,410 L 529,410 L 532,413 L 532,415 L 533,416 L 533,418 L 540,418 L 540,416 L 539,415 L 539,414 L 538,413 L 538,412 L 537,411 L 537,410 L 536,409 L 536,407 L 535,406 L 535,405 L 534,404 L 534,402 L 533,401 L 533,400 L 532,399 L 532,397 L 531,396 L 531,395 L 530,394 L 530,392 L 529,391 L 529,390 L 528,389 L 528,387 L 527,386 L 527,385 Z" fill="black" /><path d="M 489,385 L 488,386 L 486,386 L 485,387 L 484,387 L 480,391 L 480,393 L 479,394 L 479,397 L 478,398 L 478,406 L 479,407 L 479,410 L 480,411 L 480,412 L 485,417 L 486,417 L 487,418 L 489,418 L 490,419 L 499,419 L 500,418 L 503,418 L 503,413 L 502,414 L 491,414 L 489,412 L 488,412 L 487,411 L 487,410 L 485,408 L 485,404 L 484,403 L 484,402 L 485,401 L 485,396 L 486,395 L 486,394 L 489,391 L 490,391 L 491,390 L 501,390 L 502,391 L 502,388 L 503,387 L 502,386 L 501,386 L 500,385 Z" fill="black" /><path d="M 465,385 L 465,418 L 471,418 L 471,385 Z" fill="black" /><path d="M 432,385 L 432,390 L 442,390 L 443,391 L 443,418 L 449,418 L 449,391 L 450,390 L 460,390 L 460,385 Z" fill="black" /><path d="M 415,385 L 414,386 L 414,388 L 413,389 L 413,390 L 412,391 L 412,393 L 411,394 L 411,395 L 410,396 L 410,397 L 409,398 L 409,400 L 408,401 L 408,402 L 407,403 L 407,405 L 406,406 L 406,407 L 405,408 L 405,409 L 404,410 L 404,412 L 403,413 L 403,414 L 402,415 L 402,416 L 401,417 L 401,418 L 408,418 L 408,416 L 409,415 L 409,414 L 410,413 L 410,412 L 412,410 L 424,410 L 426,412 L 426,413 L 427,414 L 427,415 L 428,416 L 428,417 L 429,418 L 435,418 L 435,417 L 434,416 L 434,415 L 433,414 L 433,412 L 432,411 L 432,410 L 431,409 L 431,407 L 430,406 L 430,405 L 429,404 L 429,402 L 428,401 L 428,400 L 427,399 L 427,398 L 426,397 L 426,395 L 425,394 L 425,393 L 424,392 L 424,390 L 423,389 L 423,388 L 422,387 L 422,386 L 421,385 Z" fill="black" /><path d="M 362,385 L 362,418 L 368,418 L 367,417 L 367,411 L 368,410 L 368,402 L 367,401 L 367,399 L 368,398 L 369,398 L 370,399 L 370,400 L 371,401 L 371,402 L 373,404 L 373,405 L 374,406 L 374,407 L 376,409 L 376,410 L 377,411 L 377,412 L 381,412 L 381,411 L 382,410 L 382,409 L 383,408 L 383,407 L 385,405 L 385,404 L 386,403 L 386,402 L 388,400 L 388,399 L 389,398 L 390,399 L 390,418 L 396,418 L 396,385 L 390,385 L 390,386 L 389,387 L 389,388 L 387,390 L 387,391 L 386,392 L 386,393 L 385,394 L 385,395 L 383,397 L 383,398 L 382,399 L 382,400 L 381,401 L 381,402 L 379,404 L 378,403 L 378,402 L 376,400 L 376,399 L 375,398 L 375,397 L 373,395 L 373,394 L 372,393 L 372,392 L 371,391 L 371,390 L 369,388 L 369,387 L 367,385 Z" fill="black" /><path d="M 339,385 L 338,386 L 336,386 L 335,387 L 334,387 L 333,388 L 332,388 L 329,391 L 329,392 L 328,393 L 328,394 L 327,395 L 327,409 L 328,410 L 328,412 L 332,416 L 333,416 L 334,417 L 335,417 L 336,418 L 337,418 L 338,419 L 347,419 L 348,418 L 353,418 L 354,417 L 354,402 L 346,402 L 346,405 L 347,405 L 348,406 L 348,413 L 347,414 L 339,414 L 338,413 L 337,413 L 335,411 L 335,410 L 334,409 L 334,408 L 333,407 L 333,397 L 334,396 L 334,394 L 336,392 L 337,392 L 339,390 L 351,390 L 352,391 L 352,386 L 350,386 L 349,385 Z" fill="black" /><path d="M 304,385 L 302,387 L 302,389 L 301,390 L 301,391 L 300,392 L 300,393 L 299,394 L 299,396 L 298,397 L 298,398 L 297,399 L 297,400 L 296,401 L 296,403 L 295,404 L 295,405 L 294,406 L 294,408 L 293,409 L 293,410 L 292,411 L 292,412 L 291,413 L 291,415 L 290,416 L 290,417 L 289,418 L 296,418 L 296,416 L 297,415 L 297,414 L 298,413 L 298,412 L 300,410 L 312,410 L 315,413 L 315,414 L 316,415 L 316,417 L 317,418 L 323,418 L 323,417 L 322,416 L 322,414 L 321,413 L 321,412 L 320,411 L 320,409 L 319,408 L 319,407 L 318,406 L 318,404 L 317,403 L 317,402 L 316,401 L 316,399 L 315,398 L 315,397 L 314,396 L 314,395 L 313,394 L 313,392 L 312,391 L 312,390 L 311,389 L 311,387 L 309,385 Z" fill="black" /><path d="M 258,385 L 257,386 L 257,395 L 258,396 L 258,418 L 264,418 L 264,407 L 265,406 L 269,406 L 272,409 L 272,410 L 274,412 L 274,413 L 277,416 L 277,417 L 278,418 L 286,418 L 284,416 L 284,415 L 281,412 L 281,411 L 279,409 L 279,408 L 277,406 L 279,404 L 280,404 L 283,401 L 283,400 L 284,399 L 284,392 L 283,391 L 283,390 L 280,387 L 279,387 L 278,386 L 274,386 L 273,385 Z" fill="black" /><path d="M 225,385 L 225,418 L 231,418 L 231,408 L 232,407 L 243,407 L 244,406 L 246,406 L 250,402 L 250,401 L 251,400 L 251,397 L 252,396 L 251,395 L 251,391 L 247,387 L 246,387 L 245,386 L 242,386 L 241,385 Z" fill="black" /><path d="M 496,308 L 494,310 L 493,310 L 493,311 L 492,312 L 492,313 L 491,314 L 491,315 L 492,316 L 492,318 L 493,319 L 493,320 L 495,322 L 497,322 L 498,323 L 500,323 L 501,322 L 502,322 L 503,321 L 504,321 L 506,319 L 506,317 L 507,316 L 507,314 L 506,313 L 506,312 L 502,308 Z" fill="black" /><path d="M 447,158 L 446,159 L 445,159 L 442,162 L 442,168 L 443,169 L 443,170 L 444,170 L 446,172 L 451,172 L 452,171 L 453,171 L 454,170 L 480,170 L 480,163 L 481,162 L 481,160 L 454,160 L 453,159 L 452,159 L 451,158 Z" fill="black" /><path d="M 409,151 L 408,152 L 405,152 L 404,153 L 403,153 L 398,158 L 398,159 L 397,160 L 397,161 L 396,162 L 396,166 L 395,167 L 395,169 L 396,170 L 396,173 L 397,174 L 397,175 L 399,177 L 399,178 L 404,183 L 404,305 L 401,308 L 400,308 L 399,309 L 399,310 L 397,312 L 397,313 L 396,314 L 396,316 L 395,317 L 395,323 L 396,324 L 396,327 L 397,328 L 397,329 L 399,331 L 399,332 L 400,333 L 401,333 L 403,335 L 404,335 L 405,336 L 406,336 L 407,337 L 417,337 L 418,336 L 419,336 L 420,335 L 421,335 L 423,333 L 424,333 L 425,332 L 425,331 L 427,329 L 427,328 L 428,327 L 428,324 L 429,323 L 429,319 L 428,318 L 428,315 L 427,314 L 427,312 L 420,305 L 420,183 L 425,178 L 425,177 L 427,175 L 427,174 L 428,173 L 428,168 L 429,167 L 428,166 L 428,162 L 427,161 L 427,160 L 426,159 L 426,158 L 421,153 L 420,153 L 419,152 L 416,152 L 415,151 Z" fill="black" /><path d="M 367,112 L 366,113 L 365,113 L 364,114 L 363,114 L 358,119 L 358,120 L 356,122 L 356,125 L 355,126 L 355,130 L 356,131 L 356,134 L 357,135 L 357,136 L 359,138 L 359,139 L 362,142 L 363,142 L 364,143 L 365,143 L 366,144 L 367,144 L 369,146 L 369,305 L 368,306 L 367,306 L 365,308 L 365,309 L 364,310 L 364,314 L 365,315 L 365,317 L 366,318 L 367,318 L 368,319 L 369,319 L 370,320 L 374,320 L 376,318 L 377,318 L 378,317 L 378,316 L 379,315 L 379,310 L 378,309 L 378,308 L 375,305 L 375,145 L 376,144 L 378,144 L 379,143 L 380,143 L 381,142 L 382,142 L 386,138 L 386,137 L 389,134 L 493,134 L 494,135 L 495,134 L 496,135 L 502,135 L 503,136 L 506,136 L 507,137 L 510,137 L 511,138 L 513,138 L 514,139 L 516,139 L 517,140 L 518,140 L 519,141 L 520,141 L 521,142 L 522,142 L 523,143 L 524,143 L 525,144 L 526,144 L 529,147 L 530,147 L 533,150 L 534,150 L 539,155 L 539,156 L 544,161 L 544,162 L 546,164 L 546,165 L 548,167 L 548,168 L 549,169 L 549,170 L 550,171 L 550,172 L 551,173 L 551,175 L 552,176 L 552,178 L 553,179 L 553,181 L 554,182 L 554,186 L 555,187 L 555,193 L 556,194 L 556,201 L 555,202 L 555,209 L 554,210 L 554,213 L 553,214 L 553,216 L 552,217 L 552,219 L 551,220 L 551,221 L 550,222 L 550,223 L 549,224 L 549,225 L 548,226 L 548,227 L 547,228 L 547,229 L 545,231 L 545,232 L 540,237 L 540,238 L 537,241 L 536,241 L 532,245 L 531,245 L 529,247 L 528,247 L 526,249 L 525,249 L 524,250 L 523,250 L 522,251 L 520,251 L 519,252 L 518,252 L 517,253 L 515,253 L 514,254 L 512,254 L 511,255 L 507,255 L 506,256 L 470,256 L 469,255 L 469,199 L 474,194 L 474,192 L 473,191 L 446,191 L 445,192 L 445,194 L 450,199 L 450,308 L 445,313 L 445,314 L 444,315 L 444,316 L 443,317 L 443,327 L 444,328 L 444,329 L 445,330 L 445,331 L 451,337 L 452,337 L 453,338 L 455,338 L 456,339 L 464,339 L 465,338 L 467,338 L 468,337 L 469,337 L 475,331 L 475,330 L 476,329 L 476,326 L 477,325 L 477,318 L 476,317 L 476,315 L 475,314 L 475,313 L 469,307 L 469,275 L 470,274 L 471,274 L 472,273 L 512,273 L 513,272 L 517,272 L 518,271 L 521,271 L 522,270 L 524,270 L 525,269 L 527,269 L 528,268 L 530,268 L 531,267 L 532,267 L 533,266 L 534,266 L 535,265 L 536,265 L 538,263 L 539,263 L 540,262 L 541,262 L 542,261 L 543,261 L 546,258 L 547,258 L 558,247 L 558,246 L 560,244 L 560,243 L 563,240 L 563,239 L 564,238 L 564,237 L 565,236 L 565,235 L 566,234 L 566,233 L 567,232 L 567,231 L 568,230 L 568,229 L 569,228 L 569,226 L 570,225 L 570,224 L 571,223 L 571,220 L 572,219 L 572,216 L 573,215 L 573,210 L 574,209 L 574,189 L 573,188 L 573,182 L 572,181 L 572,178 L 571,177 L 571,175 L 570,174 L 570,172 L 569,171 L 569,169 L 568,168 L 568,167 L 567,166 L 567,165 L 566,164 L 566,163 L 565,162 L 565,161 L 564,160 L 564,159 L 563,158 L 563,157 L 561,155 L 561,154 L 558,151 L 558,150 L 552,144 L 552,143 L 551,142 L 550,142 L 545,137 L 544,137 L 541,134 L 540,134 L 539,133 L 538,133 L 536,131 L 535,131 L 534,130 L 533,130 L 532,129 L 531,129 L 530,128 L 529,128 L 528,127 L 527,127 L 526,126 L 525,126 L 524,125 L 522,125 L 521,124 L 519,124 L 518,123 L 515,123 L 514,122 L 511,122 L 510,121 L 506,121 L 505,120 L 499,120 L 498,119 L 388,119 L 387,118 L 386,118 L 383,115 L 382,115 L 381,114 L 380,114 L 379,113 L 378,113 L 377,112 Z" fill="black" /></svg>