<?xml version="1.0" encoding="utf-8" ?>
<svg baseProfile="tiny" height="100%" version="1.2" width="100%" xmlns="http://www.w3.org/2000/svg" xmlns:ev="http://www.w3.org/2001/xml-events" xmlns:xlink="http://www.w3.org/1999/xlink"><defs /><path d="M 578,313 L 577,314 L 575,314 L 572,317 L 572,319 L 571,320 L 571,323 L 572,324 L 572,326 L 575,329 L 576,329 L 577,330 L 579,330 L 580,331 L 582,331 L 583,332 L 585,332 L 588,335 L 588,336 L 589,337 L 588,338 L 588,339 L 586,341 L 584,341 L 583,342 L 578,342 L 577,341 L 573,341 L 572,340 L 571,341 L 571,344 L 572,344 L 573,345 L 578,345 L 579,346 L 583,346 L 584,345 L 588,345 L 589,344 L 590,344 L 593,341 L 593,339 L 594,338 L 594,334 L 593,333 L 593,332 L 590,329 L 589,329 L 588,328 L 587,328 L 586,327 L 584,327 L 583,326 L 581,326 L 580,325 L 579,325 L 576,322 L 576,320 L 578,318 L 579,318 L 580,317 L 589,317 L 590,318 L 591,318 L 592,317 L 592,314 L 590,314 L 589,313 Z" fill="black" /><path d="M 540,313 L 540,345 L 558,345 L 559,344 L 560,344 L 561,343 L 562,343 L 564,341 L 564,340 L 565,339 L 565,335 L 564,334 L 564,332 L 562,330 L 560,330 L 559,329 L 559,328 L 560,327 L 561,327 L 563,325 L 563,323 L 564,322 L 564,320 L 563,319 L 563,318 L 562,317 L 562,316 L 561,315 L 560,315 L 559,314 L 558,314 L 557,313 Z" fill="black" /><path d="M 516,313 L 515,314 L 515,315 L 514,316 L 514,318 L 513,319 L 513,321 L 512,322 L 512,323 L 511,324 L 511,326 L 510,327 L 510,328 L 509,329 L 509,331 L 508,332 L 508,333 L 507,334 L 507,336 L 506,337 L 506,338 L 505,339 L 505,341 L 504,342 L 504,344 L 503,345 L 508,345 L 509,344 L 509,342 L 510,341 L 510,340 L 511,339 L 511,338 L 512,337 L 525,337 L 527,339 L 527,341 L 528,342 L 528,343 L 529,344 L 529,345 L 535,345 L 534,344 L 534,342 L 533,341 L 533,340 L 532,339 L 532,337 L 531,336 L 531,335 L 530,334 L 530,333 L 529,332 L 529,330 L 528,329 L 528,328 L 527,327 L 527,326 L 526,325 L 526,323 L 525,322 L 525,321 L 524,320 L 524,318 L 523,317 L 523,316 L 522,315 L 522,313 Z" fill="black" /><path d="M 480,313 L 480,345 L 500,345 L 500,342 L 496,342 L 495,341 L 486,341 L 485,340 L 485,313 Z" fill="black" /><path d="M 441,313 L 441,314 L 440,315 L 440,317 L 439,318 L 439,319 L 438,320 L 438,322 L 437,323 L 437,324 L 436,325 L 436,327 L 435,328 L 435,329 L 434,330 L 434,332 L 433,333 L 433,334 L 432,335 L 432,337 L 431,338 L 431,339 L 430,340 L 430,342 L 429,343 L 429,345 L 434,345 L 434,344 L 435,343 L 435,342 L 436,341 L 436,340 L 437,339 L 437,338 L 438,337 L 451,337 L 452,338 L 452,340 L 453,341 L 453,342 L 454,343 L 454,345 L 460,345 L 460,344 L 459,343 L 459,342 L 458,341 L 458,339 L 457,338 L 457,337 L 456,336 L 456,334 L 455,333 L 455,332 L 454,331 L 454,329 L 453,328 L 453,327 L 452,326 L 452,324 L 451,323 L 451,322 L 450,321 L 450,320 L 449,319 L 449,317 L 448,316 L 448,314 L 447,313 Z" fill="black" /><path d="M 412,313 L 411,314 L 409,314 L 407,316 L 406,316 L 405,317 L 405,318 L 403,320 L 403,322 L 402,323 L 402,336 L 403,337 L 403,338 L 404,339 L 404,340 L 407,343 L 408,343 L 409,344 L 410,344 L 411,345 L 414,345 L 415,346 L 419,346 L 420,345 L 424,345 L 425,344 L 425,341 L 421,341 L 420,342 L 416,342 L 415,341 L 413,341 L 412,340 L 411,340 L 409,338 L 409,337 L 408,336 L 408,334 L 407,333 L 407,326 L 408,325 L 408,322 L 412,318 L 413,318 L 414,317 L 423,317 L 424,318 L 424,317 L 425,316 L 425,314 L 424,313 Z" fill="black" /><path d="M 389,313 L 389,345 L 395,345 L 394,344 L 395,343 L 395,334 L 394,333 L 394,313 Z" fill="black" /><path d="M 358,313 L 358,317 L 367,317 L 368,318 L 368,345 L 374,345 L 374,318 L 375,317 L 384,317 L 384,313 Z" fill="black" /><path d="M 341,313 L 341,315 L 340,316 L 340,317 L 339,318 L 339,320 L 338,321 L 338,322 L 337,323 L 337,325 L 336,326 L 336,327 L 335,328 L 335,330 L 334,331 L 334,333 L 333,334 L 333,335 L 332,336 L 332,337 L 331,338 L 331,340 L 330,341 L 330,343 L 329,344 L 329,345 L 334,345 L 334,344 L 335,343 L 335,341 L 336,340 L 336,339 L 338,337 L 351,337 L 352,338 L 352,339 L 353,340 L 353,342 L 354,343 L 354,344 L 355,345 L 360,345 L 360,343 L 359,342 L 359,341 L 358,340 L 358,338 L 357,337 L 357,336 L 356,335 L 356,333 L 355,332 L 355,331 L 354,330 L 354,329 L 353,328 L 353,326 L 352,325 L 352,324 L 351,323 L 351,321 L 350,320 L 350,319 L 349,318 L 349,316 L 348,315 L 348,314 L 347,313 Z" fill="black" /><path d="M 292,313 L 291,314 L 291,324 L 292,325 L 292,337 L 291,338 L 291,342 L 292,343 L 292,345 L 297,345 L 297,326 L 298,325 L 300,327 L 300,328 L 301,329 L 301,330 L 303,332 L 303,333 L 304,334 L 304,335 L 305,336 L 305,337 L 306,338 L 309,338 L 310,337 L 310,336 L 311,335 L 311,334 L 313,332 L 313,331 L 314,330 L 314,329 L 316,327 L 316,325 L 317,324 L 318,324 L 319,325 L 319,326 L 318,327 L 318,333 L 319,334 L 319,345 L 324,345 L 324,313 L 318,313 L 318,314 L 317,315 L 317,316 L 316,317 L 316,318 L 315,319 L 315,320 L 313,322 L 313,323 L 312,324 L 312,325 L 310,327 L 310,328 L 309,329 L 309,330 L 308,331 L 307,331 L 306,330 L 306,329 L 305,328 L 305,327 L 304,326 L 304,325 L 302,323 L 302,322 L 301,321 L 301,320 L 300,319 L 300,318 L 298,316 L 298,315 L 297,314 L 297,313 Z" fill="black" /><path d="M 269,313 L 268,314 L 266,314 L 264,316 L 263,316 L 262,317 L 262,318 L 260,320 L 260,322 L 259,323 L 259,336 L 260,337 L 260,339 L 265,344 L 266,344 L 267,345 L 271,345 L 272,346 L 276,346 L 277,345 L 281,345 L 282,344 L 284,344 L 284,329 L 277,329 L 277,332 L 278,332 L 279,333 L 279,340 L 278,341 L 277,341 L 276,342 L 273,342 L 272,341 L 269,341 L 266,338 L 266,337 L 265,336 L 265,335 L 264,334 L 264,324 L 265,323 L 265,322 L 266,321 L 266,320 L 267,319 L 268,319 L 270,317 L 281,317 L 282,318 L 282,317 L 283,316 L 283,314 L 282,314 L 281,313 Z" fill="black" /><path d="M 237,313 L 236,314 L 236,316 L 235,317 L 235,319 L 234,320 L 234,321 L 233,322 L 233,323 L 232,324 L 232,326 L 231,327 L 231,328 L 230,329 L 230,331 L 229,332 L 229,333 L 228,334 L 228,336 L 227,337 L 227,338 L 226,339 L 226,341 L 225,342 L 225,343 L 224,344 L 224,345 L 229,345 L 230,344 L 230,343 L 231,342 L 231,340 L 232,339 L 232,338 L 233,337 L 246,337 L 247,338 L 247,339 L 248,340 L 248,341 L 249,342 L 249,344 L 250,345 L 255,345 L 255,344 L 254,343 L 254,341 L 253,340 L 253,338 L 252,337 L 252,336 L 251,335 L 251,333 L 250,332 L 250,331 L 249,330 L 249,329 L 248,328 L 248,326 L 247,325 L 247,324 L 246,323 L 246,321 L 245,320 L 245,318 L 244,317 L 244,316 L 243,315 L 243,313 Z" fill="black" /><path d="M 195,313 L 195,345 L 200,345 L 200,334 L 201,333 L 206,333 L 207,334 L 207,335 L 209,337 L 209,338 L 211,340 L 211,341 L 213,343 L 213,344 L 214,345 L 221,345 L 218,342 L 218,341 L 216,339 L 216,338 L 214,336 L 214,335 L 212,333 L 214,331 L 215,331 L 217,329 L 217,328 L 218,327 L 218,326 L 219,325 L 219,321 L 218,320 L 218,318 L 214,314 L 212,314 L 211,313 Z" fill="black" /><path d="M 164,313 L 164,345 L 170,345 L 170,335 L 171,334 L 179,334 L 180,333 L 182,333 L 183,332 L 184,332 L 188,328 L 188,319 L 187,318 L 187,317 L 185,315 L 184,315 L 183,314 L 182,314 L 181,313 Z" fill="black" /><path d="M 410,235 L 407,238 L 407,242 L 408,243 L 408,244 L 410,246 L 415,246 L 416,245 L 417,245 L 417,244 L 418,243 L 418,238 L 415,235 Z" fill="black" /><path d="M 401,104 L 400,105 L 398,105 L 395,108 L 374,108 L 373,107 L 368,107 L 367,108 L 366,108 L 365,109 L 365,115 L 367,117 L 394,117 L 395,118 L 395,119 L 397,121 L 398,121 L 400,123 L 406,123 L 407,122 L 408,122 L 409,121 L 410,121 L 411,120 L 414,120 L 415,121 L 416,121 L 418,123 L 419,123 L 422,126 L 422,127 L 424,129 L 424,130 L 425,131 L 425,133 L 426,134 L 426,137 L 427,138 L 427,143 L 426,144 L 426,147 L 422,151 L 416,151 L 415,150 L 412,150 L 411,151 L 409,151 L 408,152 L 407,152 L 404,155 L 404,156 L 403,157 L 403,159 L 402,160 L 402,163 L 403,164 L 403,166 L 409,172 L 412,172 L 413,173 L 415,173 L 416,172 L 418,172 L 419,171 L 420,171 L 423,168 L 423,167 L 424,166 L 424,165 L 425,164 L 425,160 L 430,155 L 430,154 L 431,153 L 431,152 L 432,151 L 432,150 L 433,149 L 433,147 L 434,146 L 434,135 L 433,134 L 433,131 L 432,130 L 432,129 L 431,128 L 431,127 L 430,126 L 430,125 L 429,124 L 429,123 L 427,121 L 427,120 L 425,118 L 424,118 L 421,115 L 420,115 L 419,114 L 418,114 L 417,113 L 415,113 L 413,111 L 413,110 L 412,109 L 412,108 L 410,106 L 409,106 L 408,105 L 406,105 L 405,104 Z" fill="black" /><path d="M 335,102 L 334,103 L 333,103 L 331,105 L 330,105 L 330,106 L 327,109 L 327,111 L 326,112 L 326,118 L 327,119 L 327,120 L 328,121 L 328,122 L 334,128 L 334,234 L 332,236 L 331,236 L 329,238 L 329,239 L 328,240 L 328,241 L 327,242 L 327,243 L 326,244 L 326,252 L 327,253 L 327,254 L 328,255 L 328,256 L 331,259 L 332,259 L 333,260 L 334,260 L 335,261 L 337,261 L 338,262 L 342,262 L 343,261 L 345,261 L 346,260 L 347,260 L 348,259 L 349,259 L 352,256 L 352,255 L 353,254 L 353,253 L 354,252 L 354,243 L 353,242 L 353,241 L 351,239 L 351,238 L 349,236 L 348,236 L 345,233 L 345,129 L 349,125 L 349,124 L 351,122 L 351,121 L 352,120 L 352,116 L 353,115 L 353,114 L 352,113 L 352,110 L 351,109 L 351,108 L 346,103 L 344,103 L 343,102 Z" fill="black" /><path d="M 306,68 L 305,69 L 302,69 L 301,70 L 300,70 L 295,75 L 295,76 L 294,77 L 294,86 L 295,87 L 295,88 L 296,89 L 296,90 L 299,93 L 300,93 L 301,94 L 302,94 L 303,95 L 304,95 L 305,96 L 305,234 L 303,236 L 303,237 L 302,238 L 302,241 L 303,242 L 303,243 L 305,245 L 306,245 L 307,246 L 309,246 L 310,245 L 311,245 L 313,243 L 313,241 L 314,240 L 313,239 L 313,237 L 310,234 L 310,97 L 312,95 L 313,95 L 314,94 L 315,94 L 320,89 L 320,88 L 321,87 L 346,87 L 347,86 L 348,87 L 408,87 L 409,88 L 414,88 L 415,89 L 418,89 L 419,90 L 421,90 L 422,91 L 423,91 L 424,92 L 426,92 L 427,93 L 428,93 L 429,94 L 430,94 L 432,96 L 433,96 L 434,97 L 435,97 L 438,100 L 439,100 L 447,108 L 447,109 L 450,112 L 450,113 L 451,114 L 451,115 L 453,117 L 453,118 L 454,119 L 454,120 L 455,121 L 455,123 L 456,124 L 456,127 L 457,128 L 457,131 L 458,132 L 458,138 L 459,139 L 459,147 L 458,148 L 458,154 L 457,155 L 457,158 L 456,159 L 456,161 L 455,162 L 455,163 L 454,164 L 454,165 L 453,166 L 453,167 L 452,168 L 452,169 L 451,170 L 451,171 L 449,173 L 449,174 L 440,183 L 439,183 L 436,186 L 435,186 L 434,187 L 433,187 L 432,188 L 431,188 L 430,189 L 429,189 L 428,190 L 426,190 L 425,191 L 423,191 L 422,192 L 418,192 L 417,193 L 387,193 L 386,192 L 386,142 L 391,137 L 391,135 L 390,134 L 368,134 L 367,135 L 367,136 L 371,140 L 371,141 L 372,142 L 372,236 L 368,240 L 368,241 L 367,242 L 367,243 L 366,244 L 366,253 L 367,254 L 367,255 L 369,257 L 369,258 L 370,259 L 371,259 L 373,261 L 374,261 L 375,262 L 378,262 L 379,263 L 381,263 L 382,262 L 386,262 L 387,261 L 388,261 L 392,257 L 392,256 L 393,255 L 393,254 L 394,253 L 394,244 L 393,243 L 393,242 L 391,240 L 391,239 L 389,237 L 388,237 L 386,235 L 386,212 L 387,211 L 387,208 L 388,207 L 418,207 L 419,206 L 425,206 L 426,205 L 429,205 L 430,204 L 433,204 L 434,203 L 435,203 L 436,202 L 438,202 L 440,200 L 441,200 L 442,199 L 443,199 L 444,198 L 445,198 L 447,196 L 448,196 L 461,183 L 461,182 L 463,180 L 463,179 L 464,178 L 464,177 L 465,176 L 465,175 L 467,173 L 467,172 L 468,171 L 468,169 L 469,168 L 469,167 L 470,166 L 470,163 L 471,162 L 471,157 L 472,156 L 472,150 L 473,149 L 473,138 L 472,137 L 472,131 L 471,130 L 471,126 L 470,125 L 470,122 L 469,121 L 469,119 L 468,118 L 468,117 L 467,116 L 467,115 L 466,114 L 466,113 L 465,112 L 465,111 L 464,110 L 464,109 L 462,107 L 462,106 L 460,104 L 460,103 L 452,95 L 452,94 L 451,93 L 450,93 L 448,91 L 447,91 L 444,88 L 443,88 L 441,86 L 440,86 L 439,85 L 438,85 L 437,84 L 436,84 L 435,83 L 434,83 L 433,82 L 432,82 L 431,81 L 430,81 L 429,80 L 427,80 L 426,79 L 424,79 L 423,78 L 420,78 L 419,77 L 416,77 L 415,76 L 409,76 L 408,75 L 407,76 L 406,75 L 321,75 L 317,71 L 316,71 L 315,70 L 314,70 L 313,69 L 310,69 L 309,68 Z" fill="black" /></svg>